<svg id="svg" version="1.1" xmlns="http://www.w3.org/2000/svg" xmlns:xlink="http://www.w3.org/1999/xlink" width="400" height="151" viewBox="0, 0, 400,151"><g id="svgg"><path id="path0" d="M144.333 19.677 C 144.333 19.865,144.408 19.973,144.500 19.917 C 144.592 19.860,144.667 19.706,144.667 19.573 C 144.667 19.441,144.592 19.333,144.500 19.333 C 144.408 19.333,144.333 19.488,144.333 19.677 M265.000 19.667 C 265.000 19.850,265.075 20.000,265.167 20.000 C 265.258 20.000,265.333 19.850,265.333 19.667 C 265.333 19.483,265.258 19.333,265.167 19.333 C 265.075 19.333,265.000 19.483,265.000 19.667 M265.115 20.606 C 265.161 20.725,265.247 20.816,265.307 20.808 C 265.605 20.769,265.660 20.855,265.468 21.060 C 265.340 21.197,265.042 21.257,264.712 21.213 C 264.412 21.173,264.167 21.210,264.167 21.297 C 264.167 21.383,263.660 21.780,263.042 22.180 C 259.976 24.159,260.166 23.224,260.168 36.300 C 260.169 48.575,260.132 48.292,261.860 49.178 C 262.195 49.350,262.495 49.549,262.526 49.621 C 262.642 49.883,263.974 50.687,264.363 50.728 C 264.584 50.752,264.849 50.823,264.952 50.887 C 265.055 50.951,265.254 50.889,265.393 50.750 C 265.549 50.594,265.685 50.561,265.749 50.665 C 265.806 50.758,265.776 50.833,265.682 50.833 C 265.588 50.833,265.554 50.946,265.606 51.083 C 265.799 51.586,266.667 51.187,266.667 50.595 C 266.667 50.451,266.742 50.333,266.833 50.333 C 266.925 50.333,267.000 50.183,267.000 50.000 C 267.000 49.817,267.075 49.667,267.167 49.667 C 267.258 49.667,267.333 49.442,267.333 49.167 C 267.333 48.892,267.408 48.667,267.500 48.667 C 267.610 48.667,267.667 44.389,267.667 36.167 C 267.667 27.944,267.610 23.667,267.500 23.667 C 267.408 23.667,267.333 23.442,267.333 23.167 C 267.333 22.892,267.258 22.667,267.167 22.667 C 267.075 22.667,267.000 22.477,267.000 22.246 C 267.000 21.972,266.749 21.574,266.282 21.107 C 265.599 20.423,264.936 20.139,265.115 20.606 M228.750 24.043 C 228.060 24.224,226.435 25.774,220.723 31.700 C 216.632 35.945,216.017 35.550,216.000 28.667 C 215.989 24.659,215.303 23.484,213.512 24.410 C 212.503 24.932,212.500 24.964,212.500 36.149 C 212.500 47.232,212.494 47.135,213.202 47.843 C 214.624 49.265,215.991 47.959,216.004 45.167 C 216.022 41.471,217.062 39.180,219.068 38.414 C 220.448 37.887,221.055 38.354,223.942 42.167 C 228.482 48.164,229.492 49.057,230.767 48.206 C 231.884 47.460,231.486 46.726,226.458 40.250 C 222.098 34.635,222.090 34.917,226.750 29.917 C 230.859 25.508,231.371 24.611,230.089 24.075 C 229.771 23.942,229.490 23.841,229.464 23.851 C 229.438 23.860,229.117 23.946,228.750 24.043 M235.024 24.262 C 233.620 25.270,233.751 38.275,235.205 42.302 C 238.551 51.565,251.910 51.018,254.796 41.500 C 255.654 38.668,255.841 25.844,255.039 24.721 C 254.360 23.769,253.108 23.842,252.552 24.868 C 252.287 25.356,252.243 26.115,252.147 31.750 C 252.028 38.806,251.922 39.672,250.916 41.763 C 248.441 46.908,241.186 46.914,238.778 41.773 C 237.800 39.686,237.504 37.063,237.501 30.479 C 237.501 28.039,237.455 25.818,237.401 25.545 C 237.160 24.341,235.878 23.648,235.024 24.262 M208.050 61.644 C 205.985 62.357,204.982 63.527,203.994 66.378 C 203.741 67.107,203.325 67.836,202.818 68.435 C 201.671 69.791,201.645 70.377,202.674 71.676 C 203.726 73.004,203.727 73.013,203.826 79.667 C 203.926 86.371,203.929 86.390,205.000 86.833 C 206.910 87.625,207.331 86.200,207.333 78.917 C 207.336 72.566,207.459 72.160,209.610 71.430 C 211.858 70.667,211.791 69.525,209.448 68.664 C 206.341 67.522,207.966 64.286,211.518 64.540 C 214.076 64.723,213.968 64.253,214.123 75.966 C 214.264 86.713,214.218 86.322,215.392 86.741 C 216.575 87.162,217.247 86.335,217.559 84.077 C 217.823 82.169,218.219 81.256,219.097 80.532 C 220.720 79.195,221.543 79.706,224.667 83.995 C 226.595 86.642,227.662 87.356,228.808 86.763 C 230.108 86.091,229.951 85.694,226.699 81.419 C 223.281 76.926,223.264 76.445,226.408 73.183 C 228.608 70.901,229.049 70.072,228.405 69.429 C 227.510 68.533,226.161 69.334,222.035 73.212 C 217.988 77.015,217.516 76.473,217.505 68.011 C 217.498 61.989,217.338 61.669,214.454 61.909 C 213.328 62.003,212.830 61.960,211.755 61.679 C 210.152 61.259,209.191 61.250,208.050 61.644 M163.978 62.752 C 163.535 62.992,163.422 63.174,163.148 64.083 C 162.801 65.233,162.945 85.077,163.306 85.893 C 163.788 86.983,164.504 87.265,165.493 86.754 C 166.203 86.387,166.462 85.446,166.567 82.858 C 166.695 79.713,167.693 77.796,169.578 77.076 C 171.046 76.516,171.514 76.933,175.838 82.667 C 178.627 86.365,179.917 87.395,181.087 86.862 C 182.285 86.316,182.144 85.256,180.648 83.565 C 179.023 81.727,174.339 75.548,173.991 74.783 C 173.178 72.991,173.499 72.424,178.061 67.584 C 180.811 64.666,181.383 63.771,180.933 63.086 C 180.114 61.835,178.443 62.633,175.838 65.519 C 167.612 74.631,166.684 74.871,166.549 67.917 C 166.454 62.980,165.837 61.742,163.978 62.752 M188.750 68.969 C 186.534 69.534,185.333 70.372,185.333 71.352 C 185.333 72.415,186.298 72.539,188.500 71.761 C 191.254 70.787,193.348 71.264,194.623 73.157 C 195.844 74.969,194.762 75.998,191.630 76.003 C 185.647 76.012,182.084 79.406,183.315 83.924 C 184.119 86.875,188.852 88.398,192.906 87.010 C 194.561 86.444,195.542 86.377,196.765 86.748 C 199.349 87.532,199.966 86.596,199.278 82.937 C 199.083 81.900,199.000 80.551,198.999 78.437 C 198.998 73.657,198.576 72.211,196.669 70.446 C 194.889 68.797,191.732 68.209,188.750 68.969 M236.250 68.973 C 233.540 69.672,232.136 71.094,233.272 71.988 C 233.849 72.441,234.062 72.427,235.880 71.818 C 239.351 70.655,242.500 71.787,242.500 74.198 C 242.500 75.606,241.796 75.999,239.267 76.001 C 233.775 76.005,231.041 77.973,230.865 82.049 C 230.771 84.202,231.034 84.930,232.227 85.831 C 234.730 87.720,237.365 88.113,240.417 87.051 C 242.568 86.303,242.682 86.292,244.167 86.677 C 246.643 87.319,247.269 86.818,247.094 84.333 C 247.033 83.462,246.920 81.100,246.843 79.083 C 246.604 72.857,245.690 70.793,242.500 69.277 C 241.101 68.613,238.195 68.471,236.250 68.973 M194.194 79.041 C 196.846 80.596,194.854 84.328,191.139 84.765 C 187.692 85.170,185.399 81.904,187.618 79.750 C 188.957 78.449,192.526 78.064,194.194 79.041 M241.338 78.875 C 244.577 80.511,242.245 84.744,238.105 84.746 C 233.789 84.748,232.834 80.208,236.858 78.819 C 238.192 78.358,240.369 78.385,241.338 78.875 M135.667 97.500 C 135.667 97.592,135.478 97.667,135.246 97.667 C 134.775 97.667,133.000 99.310,133.000 99.746 C 133.000 99.886,132.925 100.000,132.833 100.000 C 132.742 100.000,132.667 100.225,132.667 100.500 C 132.667 100.775,132.592 101.000,132.500 101.000 C 132.390 101.000,132.333 105.278,132.333 113.500 C 132.333 121.722,132.390 126.000,132.500 126.000 C 132.592 126.000,132.667 126.225,132.667 126.500 C 132.667 126.775,132.742 127.000,132.833 127.000 C 132.925 127.000,133.000 127.133,133.000 127.297 C 133.000 127.460,133.150 127.701,133.333 127.833 C 133.517 127.965,133.667 128.175,133.667 128.299 C 133.667 128.589,134.078 129.000,134.368 129.000 C 134.492 129.000,134.701 129.150,134.833 129.333 C 134.974 129.529,135.265 129.667,135.537 129.667 C 135.792 129.667,136.000 129.742,136.000 129.833 C 136.000 129.935,136.778 130.000,138.000 130.000 C 139.222 130.000,140.000 129.935,140.000 129.833 C 140.000 129.742,140.208 129.667,140.463 129.667 C 140.735 129.667,141.026 129.529,141.167 129.333 C 141.299 129.150,141.508 129.000,141.632 129.000 C 141.922 129.000,142.333 128.589,142.333 128.299 C 142.333 128.175,142.483 127.965,142.667 127.833 C 142.850 127.701,143.000 127.460,143.000 127.297 C 143.000 127.133,143.075 127.000,143.167 127.000 C 143.258 127.000,143.333 126.775,143.333 126.500 C 143.333 126.225,143.408 126.000,143.500 126.000 C 143.603 126.000,143.667 125.171,143.667 123.845 C 143.667 121.761,143.679 121.688,144.029 121.637 C 144.228 121.607,144.421 121.490,144.459 121.375 C 144.503 121.243,144.431 121.203,144.264 121.268 C 144.073 121.341,144.000 121.269,144.000 121.008 C 144.000 120.793,144.072 120.692,144.179 120.758 C 144.432 120.914,145.328 120.960,145.237 120.812 C 145.195 120.745,145.237 120.643,145.331 120.585 C 145.424 120.527,145.500 120.599,145.500 120.743 C 145.500 120.950,145.598 120.979,145.958 120.880 C 146.926 120.613,148.388 120.780,148.723 121.197 C 149.086 121.649,150.538 123.237,151.643 124.392 C 152.889 125.694,153.970 126.030,154.667 125.333 C 155.462 124.538,155.210 124.050,151.342 118.917 C 146.253 112.163,146.244 111.857,150.996 106.702 C 154.407 103.002,154.907 102.165,154.072 101.555 C 153.183 100.905,152.104 101.326,149.917 103.175 C 148.387 104.469,146.667 105.081,146.667 104.331 C 146.667 104.230,146.417 104.202,146.042 104.261 C 145.698 104.315,145.208 104.280,144.953 104.182 C 144.612 104.051,144.404 104.057,144.169 104.204 C 143.993 104.314,143.799 104.354,143.738 104.293 C 143.567 104.123,144.139 103.630,144.354 103.763 C 144.469 103.834,144.513 103.789,144.467 103.648 C 144.425 103.521,144.228 103.393,144.029 103.363 C 143.697 103.315,143.667 103.213,143.667 102.155 C 143.667 101.496,143.595 101.000,143.500 101.000 C 143.408 101.000,143.333 100.775,143.333 100.500 C 143.333 100.225,143.258 100.000,143.167 100.000 C 143.075 100.000,143.000 99.886,143.000 99.746 C 143.000 99.310,141.225 97.667,140.754 97.667 C 140.522 97.667,140.333 97.592,140.333 97.500 C 140.333 97.397,139.444 97.333,138.000 97.333 C 136.556 97.333,135.667 97.397,135.667 97.500 M158.628 101.820 L 158.083 102.306 158.083 109.445 C 158.083 117.564,158.093 117.641,159.458 120.500 C 161.343 124.450,164.365 126.121,169.333 125.962 C 174.190 125.807,177.062 123.542,178.687 118.583 C 179.226 116.939,179.388 103.329,178.881 102.334 C 178.312 101.219,177.154 101.091,176.427 102.064 C 176.099 102.503,176.079 102.810,175.976 108.887 C 175.862 115.691,175.813 116.126,174.896 118.546 C 173.011 123.516,166.145 124.412,163.162 120.076 C 161.673 117.913,161.317 115.821,161.188 108.492 C 161.074 102.023,161.049 101.867,160.064 101.493 C 159.420 101.248,159.216 101.294,158.628 101.820 M184.692 101.723 C 184.490 101.938,184.252 102.369,184.163 102.681 C 183.916 103.542,183.947 123.533,184.196 124.367 C 184.639 125.843,186.265 126.111,187.123 124.849 C 187.481 124.322,187.680 103.805,187.338 102.634 C 186.979 101.404,185.477 100.887,184.692 101.723 M265.000 132.000 C 265.000 132.183,265.075 132.333,265.167 132.333 C 265.258 132.333,265.333 132.183,265.333 132.000 C 265.333 131.817,265.258 131.667,265.167 131.667 C 265.075 131.667,265.000 131.817,265.000 132.000 M144.333 132.657 C 144.333 132.846,144.408 133.000,144.500 133.000 C 144.592 133.000,144.667 132.892,144.667 132.760 C 144.667 132.628,144.592 132.473,144.500 132.417 C 144.408 132.360,144.333 132.468,144.333 132.657 M263.525 134.934 C 263.221 135.277,263.417 135.441,263.742 135.115 C 263.884 134.973,264.000 134.814,264.000 134.762 C 264.000 134.587,263.752 134.677,263.525 134.934 " stroke="none" fill="#f3f9fc" fill-rule="evenodd"></path><path id="path1" d="M148.333 15.500 C 148.333 15.592,148.033 15.667,147.667 15.667 C 147.300 15.667,147.000 15.742,147.000 15.833 C 147.000 15.925,146.850 16.000,146.667 16.000 C 146.483 16.000,146.333 16.075,146.333 16.167 C 146.333 16.258,146.217 16.333,146.076 16.333 C 145.761 16.333,145.000 17.068,145.000 17.372 C 145.000 17.494,144.850 17.701,144.667 17.833 C 144.471 17.974,144.333 18.265,144.333 18.537 C 144.333 18.792,144.258 19.000,144.167 19.000 C 144.056 19.000,144.000 32.722,144.000 59.833 C 144.000 100.556,143.999 100.667,143.667 100.667 C 143.483 100.667,143.333 100.742,143.333 100.833 C 143.333 100.925,143.408 101.000,143.500 101.000 C 143.595 101.000,143.667 101.496,143.667 102.155 C 143.667 103.213,143.697 103.315,144.029 103.363 C 144.228 103.393,144.425 103.521,144.467 103.648 C 144.513 103.789,144.469 103.834,144.354 103.763 C 144.139 103.630,143.567 104.123,143.738 104.293 C 143.799 104.354,143.993 104.314,144.169 104.204 C 144.404 104.057,144.612 104.051,144.953 104.182 C 145.208 104.280,145.698 104.315,146.042 104.261 C 146.417 104.202,146.667 104.230,146.667 104.331 C 146.667 105.081,148.387 104.469,149.917 103.175 C 152.104 101.326,153.183 100.905,154.072 101.555 C 154.907 102.165,154.407 103.002,150.996 106.702 C 146.244 111.857,146.253 112.163,151.342 118.917 C 155.210 124.050,155.462 124.538,154.667 125.333 C 153.970 126.030,152.889 125.694,151.643 124.392 C 150.538 123.237,149.086 121.649,148.723 121.197 C 148.388 120.780,146.926 120.613,145.958 120.880 C 145.598 120.979,145.500 120.950,145.500 120.743 C 145.500 120.599,145.424 120.527,145.331 120.585 C 145.237 120.643,145.195 120.745,145.237 120.812 C 145.328 120.960,144.432 120.914,144.179 120.758 C 144.072 120.692,144.000 120.793,144.000 121.008 C 144.000 121.269,144.073 121.341,144.264 121.268 C 144.431 121.203,144.503 121.243,144.459 121.375 C 144.421 121.490,144.228 121.607,144.029 121.637 C 143.631 121.695,143.438 126.333,143.833 126.333 C 143.939 126.333,144.000 127.556,144.000 129.667 C 144.000 132.610,144.159 133.863,144.376 132.625 C 144.438 132.270,144.449 132.267,144.584 132.573 C 144.678 132.786,144.660 132.919,144.530 132.962 C 144.292 133.042,144.264 134.000,144.500 134.000 C 144.592 134.000,144.667 134.193,144.667 134.429 C 144.667 134.911,145.011 135.333,145.405 135.333 C 145.556 135.333,145.667 135.475,145.667 135.667 C 145.667 135.889,145.778 136.000,146.000 136.000 C 146.183 136.000,146.333 136.075,146.333 136.167 C 146.333 136.258,146.558 136.333,146.833 136.333 C 147.108 136.333,147.333 136.408,147.333 136.500 C 147.333 136.595,147.833 136.667,148.500 136.667 C 149.167 136.667,149.667 136.738,149.667 136.833 C 149.667 136.944,168.056 137.000,204.500 137.000 C 240.944 137.000,259.333 136.944,259.333 136.833 C 259.333 136.736,259.889 136.667,260.667 136.667 C 261.444 136.667,262.000 136.597,262.000 136.500 C 262.000 136.408,262.208 136.333,262.463 136.333 C 262.735 136.333,263.026 136.196,263.167 136.000 C 263.299 135.817,263.506 135.667,263.628 135.667 C 263.932 135.667,264.667 134.906,264.667 134.591 C 264.667 134.449,264.742 134.333,264.833 134.333 C 264.925 134.333,265.000 134.183,265.000 134.000 C 265.000 133.817,265.075 133.667,265.167 133.667 C 265.258 133.667,265.333 133.442,265.333 133.167 C 265.333 132.892,265.409 132.667,265.501 132.667 C 265.612 132.667,265.654 119.164,265.626 92.083 C 265.602 69.762,265.642 51.500,265.714 51.500 C 265.786 51.500,265.765 51.350,265.667 51.167 C 265.539 50.928,265.540 50.833,265.671 50.833 C 265.771 50.833,265.806 50.758,265.749 50.665 C 265.685 50.561,265.549 50.594,265.393 50.750 C 265.254 50.889,265.055 50.951,264.952 50.887 C 264.849 50.823,264.584 50.752,264.363 50.728 C 263.974 50.687,262.642 49.883,262.526 49.621 C 262.495 49.549,262.195 49.350,261.860 49.178 C 260.132 48.292,260.169 48.575,260.168 36.300 C 260.166 23.224,259.976 24.159,263.042 22.180 C 263.660 21.780,264.167 21.383,264.167 21.297 C 264.167 21.210,264.412 21.173,264.712 21.213 C 265.042 21.257,265.340 21.197,265.468 21.060 C 265.660 20.855,265.605 20.769,265.307 20.808 C 265.247 20.816,265.156 20.714,265.105 20.580 C 265.054 20.447,265.066 20.345,265.131 20.355 C 265.527 20.414,265.667 20.278,265.667 19.833 C 265.667 19.558,265.592 19.333,265.500 19.333 C 265.408 19.333,265.333 19.108,265.333 18.833 C 265.333 18.558,265.258 18.333,265.167 18.333 C 265.075 18.333,265.000 18.217,265.000 18.076 C 265.000 17.650,264.162 16.905,263.992 17.179 C 263.915 17.304,263.791 17.343,263.717 17.264 C 263.644 17.185,263.677 17.088,263.792 17.047 C 264.143 16.921,264.040 16.333,263.667 16.333 C 263.483 16.333,263.333 16.258,263.333 16.167 C 263.333 16.075,263.183 16.000,263.000 16.000 C 262.817 16.000,262.667 15.925,262.667 15.833 C 262.667 15.742,262.367 15.667,262.000 15.667 C 261.633 15.667,261.333 15.592,261.333 15.500 C 261.333 15.389,242.389 15.333,204.833 15.333 C 167.278 15.333,148.333 15.389,148.333 15.500 M144.667 19.573 C 144.667 19.706,144.592 19.860,144.500 19.917 C 144.408 19.973,144.333 19.865,144.333 19.677 C 144.333 19.488,144.408 19.333,144.500 19.333 C 144.592 19.333,144.667 19.441,144.667 19.573 M265.333 19.667 C 265.333 19.850,265.258 20.000,265.167 20.000 C 265.075 20.000,265.000 19.850,265.000 19.667 C 265.000 19.483,265.075 19.333,265.167 19.333 C 265.258 19.333,265.333 19.483,265.333 19.667 M230.089 24.075 C 231.371 24.611,230.859 25.508,226.750 29.917 C 222.090 34.917,222.098 34.635,226.458 40.250 C 231.486 46.726,231.884 47.460,230.767 48.206 C 229.492 49.057,228.482 48.164,223.942 42.167 C 221.055 38.354,220.448 37.887,219.068 38.414 C 217.062 39.180,216.022 41.471,216.004 45.167 C 215.991 47.959,214.624 49.265,213.202 47.843 C 212.494 47.135,212.500 47.232,212.500 36.149 C 212.500 24.964,212.503 24.932,213.512 24.410 C 215.303 23.484,215.989 24.659,216.000 28.667 C 216.017 35.550,216.632 35.945,220.723 31.700 C 226.435 25.774,228.060 24.224,228.750 24.043 C 229.117 23.946,229.438 23.860,229.464 23.851 C 229.490 23.841,229.771 23.942,230.089 24.075 M236.942 24.602 C 237.467 25.254,237.500 25.604,237.501 30.479 C 237.504 37.063,237.800 39.686,238.778 41.773 C 241.186 46.914,248.441 46.908,250.916 41.763 C 251.922 39.672,252.028 38.806,252.147 31.750 C 252.243 26.115,252.287 25.356,252.552 24.868 C 253.108 23.842,254.360 23.769,255.039 24.721 C 255.841 25.844,255.654 38.668,254.796 41.500 C 251.910 51.018,238.551 51.565,235.205 42.302 C 234.192 39.496,233.606 26.998,234.399 25.100 C 234.890 23.925,236.193 23.671,236.942 24.602 M211.755 61.679 C 212.830 61.960,213.328 62.003,214.454 61.909 C 217.338 61.669,217.498 61.989,217.505 68.011 C 217.516 76.473,217.988 77.015,222.035 73.212 C 226.161 69.334,227.510 68.533,228.405 69.429 C 229.049 70.072,228.608 70.901,226.408 73.183 C 223.264 76.445,223.281 76.926,226.699 81.419 C 229.951 85.694,230.108 86.091,228.808 86.763 C 227.662 87.356,226.595 86.642,224.667 83.995 C 221.543 79.706,220.720 79.195,219.097 80.532 C 218.219 81.256,217.823 82.169,217.559 84.077 C 217.247 86.335,216.575 87.162,215.392 86.741 C 214.218 86.322,214.264 86.713,214.123 75.966 C 213.968 64.253,214.076 64.723,211.518 64.540 C 207.966 64.286,206.341 67.522,209.448 68.664 C 211.791 69.525,211.858 70.667,209.610 71.430 C 207.459 72.160,207.336 72.566,207.333 78.917 C 207.331 86.200,206.910 87.625,205.000 86.833 C 203.929 86.390,203.926 86.371,203.826 79.667 C 203.727 73.013,203.726 73.004,202.674 71.676 C 201.645 70.377,201.671 69.791,202.818 68.435 C 203.325 67.836,203.741 67.107,203.994 66.378 C 205.465 62.135,207.890 60.666,211.755 61.679 M165.493 62.746 C 166.308 63.168,166.473 63.974,166.549 67.917 C 166.684 74.871,167.612 74.631,175.838 65.519 C 178.443 62.633,180.114 61.835,180.933 63.086 C 181.383 63.771,180.811 64.666,178.061 67.584 C 173.499 72.424,173.178 72.991,173.991 74.783 C 174.339 75.548,179.023 81.727,180.648 83.565 C 182.144 85.256,182.285 86.316,181.087 86.862 C 179.917 87.395,178.627 86.365,175.838 82.667 C 171.514 76.933,171.046 76.516,169.578 77.076 C 167.693 77.796,166.695 79.713,166.567 82.858 C 166.462 85.446,166.203 86.387,165.493 86.754 C 164.504 87.265,163.788 86.983,163.306 85.893 C 162.945 85.077,162.801 65.233,163.148 64.083 C 163.422 63.174,163.535 62.992,163.978 62.752 C 164.545 62.444,164.905 62.443,165.493 62.746 M194.714 69.156 C 197.870 70.374,198.997 72.815,198.999 78.437 C 199.000 80.551,199.083 81.900,199.278 82.937 C 199.966 86.596,199.349 87.532,196.765 86.748 C 195.542 86.377,194.561 86.444,192.906 87.010 C 188.852 88.398,184.119 86.875,183.315 83.924 C 182.084 79.406,185.647 76.012,191.630 76.003 C 194.762 75.998,195.844 74.969,194.623 73.157 C 193.348 71.264,191.254 70.787,188.500 71.761 C 186.298 72.539,185.333 72.415,185.333 71.352 C 185.333 69.286,191.380 67.871,194.714 69.156 M242.500 69.277 C 245.690 70.793,246.604 72.857,246.843 79.083 C 246.920 81.100,247.033 83.462,247.094 84.333 C 247.269 86.818,246.643 87.319,244.167 86.677 C 242.682 86.292,242.568 86.303,240.417 87.051 C 237.365 88.113,234.730 87.720,232.227 85.831 C 231.034 84.930,230.771 84.202,230.865 82.049 C 231.041 77.973,233.775 76.005,239.267 76.001 C 241.796 75.999,242.500 75.606,242.500 74.198 C 242.500 71.787,239.351 70.655,235.880 71.818 C 234.062 72.427,233.849 72.441,233.272 71.988 C 230.695 69.960,238.878 67.556,242.500 69.277 M189.237 78.831 C 185.889 79.923,185.917 83.622,189.280 84.599 C 193.391 85.794,197.597 81.036,194.194 79.041 C 193.148 78.429,190.778 78.328,189.237 78.831 M236.858 78.819 C 232.834 80.208,233.789 84.748,238.105 84.746 C 242.245 84.744,244.577 80.511,241.338 78.875 C 240.369 78.385,238.192 78.358,236.858 78.819 M160.064 101.493 C 161.049 101.867,161.074 102.023,161.188 108.492 C 161.317 115.821,161.673 117.913,163.162 120.076 C 166.145 124.412,173.011 123.516,174.896 118.546 C 175.813 116.126,175.862 115.691,175.976 108.887 C 176.079 102.810,176.099 102.503,176.427 102.064 C 177.154 101.091,178.312 101.219,178.881 102.334 C 179.388 103.329,179.226 116.939,178.687 118.583 C 177.062 123.542,174.190 125.807,169.333 125.962 C 164.365 126.121,161.343 124.450,159.458 120.500 C 158.093 117.641,158.083 117.564,158.083 109.445 L 158.083 102.306 158.628 101.820 C 159.216 101.294,159.420 101.248,160.064 101.493 M186.724 101.676 C 187.504 102.290,187.522 102.571,187.468 113.833 C 187.420 123.620,187.395 124.449,187.123 124.849 C 186.265 126.111,184.639 125.843,184.196 124.367 C 183.947 123.533,183.916 103.542,184.163 102.681 C 184.530 101.398,185.758 100.916,186.724 101.676 M265.333 132.000 C 265.333 132.183,265.258 132.333,265.167 132.333 C 265.075 132.333,265.000 132.183,265.000 132.000 C 265.000 131.817,265.075 131.667,265.167 131.667 C 265.258 131.667,265.333 131.817,265.333 132.000 M264.000 134.762 C 264.000 134.814,263.884 134.973,263.742 135.115 C 263.417 135.441,263.221 135.277,263.525 134.934 C 263.752 134.677,264.000 134.587,264.000 134.762 " stroke="none" fill="#64b4f4" fill-rule="evenodd"></path></g></svg>